<svg width="32" height="32" viewBox="0 0 34 34" fill="none" xmlns="http://www.w3.org/2000/svg">
  <circle cx="17" cy="17" r="16" fill="#040a0a"/>
  <circle cx="17" cy="17" r="16" fill="none" stroke="#10b981" stroke-width="1.5"/>
  <path d="M17 4.5L21 10.5L19 16.5L15 16.5L13 10.5Z" fill="#10b981"/>
  <path d="M21 10.5L27 12L27.5 18.5L22.5 21.5L19 16.5Z" fill="#071a12" stroke="#0d3326" stroke-width="0.7"/>
  <path d="M22.5 21.5L25.5 27.5L19.5 30L14.5 28L15 21.5Z" fill="#071a12" stroke="#0d3326" stroke-width="0.7"/>
  <path d="M7 21.5L8 28L13 30L14.5 28L14.5 21.5Z" fill="#071a12" stroke="#0d3326" stroke-width="0.7"/>
  <path d="M6.5 18.5L7 12L13 10.5L15 16.5L11.5 21.5Z" fill="#071a12" stroke="#0d3326" stroke-width="0.7"/>
  <path d="M15 16.5L19 16.5L22.5 21.5L17 22.5L11.5 21.5Z" fill="#0a201a" stroke="#0d3326" stroke-width="0.7"/>
</svg>
